/* XPM */
static char *_6c4eb1d1d264527cd40f4c97ed6acd2[] = {
/* columns rows colors chars-per-pixel */
"32 32 152 2 ",
"   c #1F76B6",
".  c #2076B6",
"X  c #2077B6",
"o  c #2177B7",
"O  c #2278B7",
"+  c #2378B7",
"@  c #2379B7",
"#  c #2479B8",
"$  c #257AB8",
"%  c #267AB8",
"&  c #277BB9",
"*  c #287BB9",
"=  c #297CB9",
"-  c #2A7DBA",
";  c #2B7EBA",
":  c #2C7EBA",
">  c #2D7EBB",
",  c #2D7FBB",
"<  c #2F80BB",
"1  c #3181BC",
"2  c #3282BC",
"3  c #3382BD",
"4  c #3483BD",
"5  c #3583BD",
"6  c #3684BD",
"7  c #3785BE",
"8  c #3885BE",
"9  c #3886BE",
"0  c #3986BF",
"q  c #3A87BF",
"w  c #3B87BF",
"e  c #3C88BF",
"r  c #3D88C0",
"t  c #3E89C0",
"y  c #408AC1",
"u  c #428BC1",
"i  c #438CC2",
"p  c #458DC2",
"a  c #468EC3",
"s  c #478EC3",
"d  c #478FC3",
"f  c #4990C4",
"g  c #4A90C4",
"h  c #4B91C4",
"j  c #4C91C5",
"k  c #4C92C5",
"l  c #4D92C5",
"z  c #4E92C5",
"x  c #4E93C5",
"c  c #4E93C6",
"v  c #5094C6",
"b  c #5195C6",
"n  c #5496C7",
"m  c #5597C8",
"M  c #5799C8",
"N  c #5999C9",
"B  c #5A9AC9",
"V  c #5C9BCA",
"C  c #5E9DCB",
"Z  c #5F9DCB",
"A  c #629FCC",
"S  c #64A0CD",
"D  c #67A2CD",
"F  c #6BA5CF",
"G  c #6DA6CF",
"H  c #6EA6D0",
"J  c #71A8D1",
"K  c #72A9D1",
"L  c #73AAD1",
"P  c #79ADD3",
"I  c #7CAFD4",
"U  c #7DAFD5",
"Y  c #7FB1D5",
"T  c #80B1D5",
"R  c #81B2D6",
"E  c #82B3D6",
"W  c #84B4D7",
"Q  c #88B6D8",
"!  c #89B7D9",
"~  c #8AB8D9",
"^  c #8BB8D9",
"/  c #8CB9D9",
"(  c #8DB9DA",
")  c #91BCDB",
"_  c #93BDDC",
"`  c #94BDDC",
"'  c #95BEDC",
"]  c #96BFDD",
"[  c #97C0DD",
"{  c #9BC2DE",
"}  c #9DC3DF",
"|  c #A1C6E0",
" . c #A7C9E2",
".. c #A8CAE3",
"X. c #AACBE3",
"o. c #ABCBE4",
"O. c #ACCCE4",
"+. c #B2D0E6",
"@. c #B3D0E6",
"#. c #B3D1E6",
"$. c #B6D2E7",
"%. c #B8D3E8",
"&. c #BAD5E8",
"*. c #BDD7EA",
"=. c #BED7EA",
"-. c #C0D8EA",
";. c #C2D9EB",
":. c #C3DAEC",
">. c #C4DBEC",
",. c #C9DEEE",
"<. c #CBDFEE",
"1. c #CCE0EE",
"2. c #CDE0EF",
"3. c #CEE1EF",
"4. c #CFE1EF",
"5. c #D2E4F0",
"6. c #D3E4F1",
"7. c #D4E5F1",
"8. c #D5E5F1",
"9. c #D6E6F2",
"0. c #D7E6F2",
"q. c #D7E7F2",
"w. c #D8E7F2",
"e. c #DEEBF4",
"r. c #DFECF5",
"t. c #E0ECF5",
"y. c #E1EDF5",
"u. c #E2EDF6",
"i. c #E5EFF6",
"p. c #E6EFF7",
"a. c #E6F0F7",
"s. c #E8F1F8",
"d. c #E9F2F8",
"f. c #EBF3F8",
"g. c #EDF4F9",
"h. c #EEF5FA",
"j. c #F0F6FA",
"k. c #F2F7FB",
"l. c #F3F7FB",
"z. c #F4F8FB",
"x. c #F4F9FC",
"c. c #F5F9FC",
"v. c #F6FAFC",
"b. c #F7FAFC",
"n. c #F8FBFD",
"m. c #FBFCFE",
"M. c #FBFDFE",
"N. c #FCFDFE",
"B. c #FDFEFE",
"V. c #FEFEFF",
"C. c gray100",
"Z. c None",
/* pixels */
"Z.Z.> @                                                 > M Z.Z.",
"Z.$                                                         8 Z.",
"3                                                             B ",
"$                                                             < ",
"                                                        @     . ",
"                                      .                 $ $   . ",
"                    . .     . .   . . .   @   @         . . @   ",
"              @ = e j v j j j j j j j x f f p p p a h y ;       ",
"              r +.6.q.q.q.q.6.q.6.q.6.5.5.5.6.6.6.6.w.o.B $     ",
"            $ ] C.C.C.C.C.C.C.C.C.C.C.C.C.C.C.C.C.m.C.f.&.r     ",
"          + A r.C.C.C.c.i.i.a.a.a.a.a.a.a.i.i.h.m.C.C.C.h.h     ",
"        . 8 %.c.C.C.v.-.Q ! / / / ~ / / ~ Q ~ $.s.C.C.C.w.i     ",
"          f y.C.C.C.,.J 5 5 5 6 6 6 6 6 6 6 3 _ f.C.C.j.O.3     ",
"        ; L v.C.C.C.] 3         .         .   o.c.C.C.q.L $     ",
"        f o.v.C.C.n.F                     . l q.C.C.C.+.y @     ",
"        D q.m.C.C.r.n .                   5 T y.C.C.C.} $ @     ",
"        T c.C.C.a.) p C ~ >               y =.v.C.C.v.T .       ",
".     ; | C.C.C.3.y h $.v.H 6 3 2 2 2 2 2 G g.C.C.n.3.A . .     ",
"@ . $ v =.C.C.C.-.@ A 6.C.3.] P T T T Y I +.C.C.C.j.] 8         ",
"$ . ; [ h.C.C.C. .@ { v.C.m.f.e.y.r.y.r.e.h.C.C.C.q.v #         ",
"@ @ 6 4.C.C.C.q.L e ,.C.C.C.C.C.C.C.C.C.C.C.C.f.-.P ;           ",
"@ $ r >.j.i.f./ r l &.c.r.r.e.e.e.e.e.e.y.y.q.o.m               ",
"@ + ; l M l l 3 $ 3 i l h l v v v v v v v v l y *               ",
"  + + .                                     . .                 ",
"    o                                                           ",
"                                                                ",
"                              .                                 ",
"X                                                             . ",
"&                                                             @ ",
"r                                                             < ",
"Z.;                                                         @ Z.",
"Z.Z.r $                                                 @ ; Z.Z."
};
