/* XPM */
static char *ca6813a2f5924e90e64e6fd6211cdc33[] = {
/* columns rows colors chars-per-pixel */
"16 16 2 1 ",
"  c #1F76B6",
". c None",
/* pixels */
"..            ..",
".              .",
"                ",
"                ",
"                ",
"       ...      ",
"     ........   ",
"    ..     .    ",
"    ..    ..    ",
"    ........    ",
"        ..      ",
"                ",
"                ",
"                ",
".              .",
"..            .."
};
