/* XPM */
static char *b4c210929fbe4159c7b172cafc964740[] = {
/* columns rows colors chars-per-pixel */
"64 64 189 2 ",
"   c #1F76B6",
".  c #2077B6",
"X  c #2177B7",
"o  c #2278B7",
"O  c #2378B7",
"+  c #2379B7",
"@  c #2479B8",
"#  c #257AB8",
"$  c #267AB8",
"%  c #277BB9",
"&  c #287BB9",
"*  c #297CB9",
"=  c #2A7CB9",
"-  c #2A7DBA",
";  c #2C7EBA",
":  c #2D7FBB",
">  c #2E7FBB",
",  c #2F80BB",
"<  c #3080BB",
"1  c #3181BC",
"2  c #3282BC",
"3  c #3382BD",
"4  c #3483BD",
"5  c #3583BD",
"6  c #3684BD",
"7  c #3785BE",
"8  c #3986BF",
"9  c #3A87BF",
"0  c #3B87BF",
"q  c #3C88BF",
"w  c #3D88C0",
"e  c #3E89C0",
"r  c #3F89C0",
"t  c #408AC1",
"y  c #418BC1",
"u  c #428BC1",
"i  c #448DC2",
"p  c #458DC2",
"a  c #468EC3",
"s  c #478EC3",
"d  c #478FC3",
"f  c #488FC3",
"g  c #4990C4",
"h  c #4A90C4",
"j  c #4B91C4",
"k  c #4C91C5",
"l  c #4D92C5",
"z  c #4E92C5",
"x  c #5094C6",
"c  c #5195C6",
"v  c #5295C7",
"b  c #5396C7",
"n  c #5496C7",
"m  c #5597C7",
"M  c #5698C8",
"N  c #5798C8",
"B  c #5899C9",
"V  c #5A9AC9",
"C  c #5B9BC9",
"Z  c #5C9BCA",
"A  c #5C9CCA",
"S  c #5D9CCA",
"D  c #5E9DCB",
"F  c #5F9DCB",
"G  c #609ECB",
"H  c #619ECB",
"J  c #639FCC",
"K  c #64A0CC",
"L  c #64A0CD",
"P  c #65A1CD",
"I  c #67A2CD",
"U  c #68A3CE",
"Y  c #6AA4CE",
"T  c #6BA4CF",
"R  c #6BA5CF",
"E  c #6CA5CF",
"W  c #6DA6CF",
"Q  c #6EA6D0",
"!  c #6FA7D0",
"~  c #70A7D0",
"^  c #72A9D1",
"/  c #74AAD2",
"(  c #78ACD3",
")  c #79ADD3",
"_  c #7AAED4",
"`  c #7CAFD4",
"'  c #7DAFD5",
"]  c #7FB1D5",
"[  c #82B3D6",
"{  c #83B3D7",
"}  c #87B5D8",
"|  c #88B6D8",
" . c #8AB8D9",
".. c #8CB9D9",
"X. c #8DB9DA",
"o. c #8EBADA",
"O. c #8FBADA",
"+. c #8FBBDB",
"@. c #90BBDB",
"#. c #92BCDC",
"$. c #93BDDC",
"%. c #94BDDC",
"&. c #95BEDC",
"*. c #96BFDD",
"=. c #98C0DE",
"-. c #99C1DE",
";. c #9DC3DF",
":. c #9EC4E0",
">. c #9FC4E0",
",. c #A0C5E0",
"<. c #A1C6E0",
"1. c #A3C7E1",
"2. c #A4C7E1",
"3. c #A5C8E2",
"4. c #A6C9E2",
"5. c #A8CAE3",
"6. c #A9CAE3",
"7. c #ACCCE4",
"8. c #ADCDE4",
"9. c #AECEE5",
"0. c #AFCEE5",
"q. c #B1CFE6",
"w. c #B2D0E6",
"e. c #B3D1E6",
"r. c #B4D1E7",
"t. c #B6D2E7",
"y. c #B9D4E8",
"u. c #BAD5E8",
"i. c #BAD5E9",
"p. c #BCD6E9",
"a. c #BDD7EA",
"s. c #C0D8EA",
"d. c #C2D9EB",
"f. c #C2DAEB",
"g. c #C3DAEC",
"h. c #C4DBEC",
"j. c #C6DCEC",
"k. c #C7DDED",
"l. c #C9DEEE",
"z. c #CADFEE",
"x. c #CBDFEE",
"c. c #CCE0EE",
"v. c #CDE0EF",
"b. c #CEE1EF",
"n. c #CFE1EF",
"m. c #D0E2F0",
"M. c #D0E3F0",
"N. c #D1E3F0",
"B. c #D2E4F0",
"V. c #D3E4F1",
"C. c #D4E5F1",
"Z. c #D6E6F2",
"A. c #D8E7F2",
"S. c #D9E8F3",
"D. c #DAE8F3",
"F. c #DBE9F3",
"G. c #DCEAF4",
"H. c #DDEAF4",
"J. c #DFECF5",
"K. c #E0ECF5",
"L. c #E1EDF5",
"P. c #E2EDF6",
"I. c #E3EEF6",
"U. c #E4EEF6",
"Y. c #E5EFF6",
"T. c #E7F0F7",
"R. c #E8F1F8",
"E. c #EBF3F8",
"W. c #ECF3F9",
"Q. c #EDF4F9",
"!. c #EEF5FA",
"~. c #EFF5FA",
"^. c #F0F6FA",
"/. c #F2F7FB",
"(. c #F3F7FB",
"). c #F4F8FB",
"_. c #F4F9FC",
"`. c #F5F9FC",
"'. c #F6FAFC",
"]. c #F7FAFC",
"[. c #F8FBFD",
"{. c #F9FBFD",
"}. c #FBFCFE",
"|. c #FBFDFE",
" X c #FCFDFE",
".X c #FDFEFE",
"XX c #FEFEFF",
"oX c gray100",
"OX c None",
/* pixels */
"OXOXOXOXOXOXOXOXOXOX8 - +                                                                             . - 7 OXOXOXOXOXOXOXOXOXOX",
"OXOXOXOXOXOXOXt +                                                                                     .       . t OXOXOXOXOXOXOX",
"OXOXOXOXOXOX+                                                                                                   . + OXOXOXOXOXOX",
"OXOXOXOXl .                                                                                                         . g OXOXOXOX",
"OXOXOXg                                                                                                                 f OXOXOX",
"OXOXOX                                                                                                                    OXOXOX",
"OXOX@                                                                                                                     + OXOX",
"OXd                                                                                                                         d OX",
"OX.                                                                                                                         . OX",
"!                                                                                                                             P ",
"t .                                                                                                                           w ",
"> .                                                                                                                           > ",
"@ . .                                                                                                                         + ",
". .                                                                                                                             ",
"                                .     +                                                                 .                       ",
"                            1 M S Z B B S B Z S B B B B B B M M B B M m m m m m m m m m b m b b b b b b g 8                     ",
"                          - T k.S.M.M.M.M.M.M.M.c.z.z.z.z.k.z.z.z.z.z.s.h.j.s.j.k.s.k.g.h.g.g.g.s.s.g.g.r.O.l @ +               ",
"                          l 0.(.{.}.{.{.}.{.{.{.{.{.}.'.}.'.{.{.}.'.}.{.[.{.{.{.'.}.'.{.[.{.{.{.'.}.{.'.].^.U.T                 ",
"                          T Q.XXXXXXXXXXXXXXXXXXXXXXXXXXXXXXXXXXXXXXXXXXXXXXXXXXXXXXXXXXXXXXXXXXXXXXXXXXXXXXXXq.i .             ",
"                          | XXXXXXXXXXXXXXXXXXXXXXXXXXXXXXXXXXXXXXXXXXXXXXXXXXXXXXXXXXXXXXXXXXXXXXXXXXXXXXXXXXI.] .             ",
"                        , 2.XXXXXXXXXXXXXXXXXXXXXXXXXXXXXXXXXXXXXXXXXXXXXXXXXXXXXXXXXXXXXXXXXXXXXXXXXXXXXXXXXX].*..             ",
"                      + A j.XXXXXXXXXXXXXXXXXXXXXXXXXXXXXXXXXXXXXXXXXXXXXXXXXXXXXXXXXXXXXXXXXXXXXXXXXXXXXXXXXX].=.+             ",
"                      + ;.Q.XXXXXXXXXXXXXX].s.6.2.6.6.6.6.6.6.6.6.6.6.6.6.6.6.6.6.6.6.6.;.r.S.{.XXXXXXXXXXXXXXS.( +             ",
"                      < c.XXXXXXXXXXXXXXXXS.m = + = & - - - & & = = = - % = = = & - - -   b i.'.XXXXXXXXXXXXXXr.f .             ",
"                    O M S.XXXXXXXXXXXXXXXXa.< . . . . X X X X X . . . . X X X X . . . X . Z J.{.XXXXXXXXXXXXXX#.O               ",
"                    1 { R.XXXXXXXXXXXXXXU. .+ . .   . .                 .           . .   _ {.XXXXXXXXXXXXXXQ.^                 ",
"                  . f g.'.XXXXXXXXXXXXXXa.j +                                           w 6.XXXXXXXXXXXXXX{.k.m                 ",
"                  . F (.XXXXXXXXXXXXXXXX;.  .                                         . ! V.XXXXXXXXXXXXXX].=.w                 ",
"                  O ' XXXXXXXXXXXXXXXXXX| .                                           . =.{.XXXXXXXXXXXXXX].T +                 ",
"                . t 6.XXXXXXXXXXXXXXXXS.I                                             @ y.XXXXXXXXXXXXXXXXD.i                   ",
"                . ! C.XXXXXXXXXXXXXXXX;.t + , = .                                   + z c.XXXXXXXXXXXXXX'.0.1                   ",
"                . O.}.XXXXXXXXXXXXXX{.W . > ( H > .                               + < [ I.XXXXXXXXXXXXXXD._ >                   ",
"              + = 8.XXXXXXXXXXXXXXXXI.b   8 B.B.`                                   q s.'.XXXXXXXXXXXXXXj.d +                   ",
"              + b c.XXXXXXXXXXXXXX].y.8   b XXXXc.l .                               b W.XXXXXXXXXXXXXXXX0.+ .                   ",
"              , #.U.XXXXXXXXXXXXXXL.[ > + ( ].XX'.i.d +                           + / {.XXXXXXXXXXXXXXXXO.                      ",
"              7 p.{.XXXXXXXXXXXXXXc.d + j w.{.XXXX^.<.t       .                   i 2.{.XXXXXXXXXXXXXXB.P                       ",
"              j I.XXXXXXXXXXXXXXXXw.+   W R.XXXXXXXXE.r.O.$.*.&.&.&.&.&.*.*.&.&.O.w.U.XXXXXXXXXXXXXXXX=.7                       ",
"            % ^ ].XXXXXXXXXXXXXX]...  + #.XXXXXXXXXXXXXXXXXXXXXXXXXXXXXXXXXXXXXXXXXXXXXXXXXXXXXXXXXXE.H                         ",
"            j 2.].XXXXXXXXXXXXXXx.J   1 8.XXXXXXXXXXXXXXXXXXXXXXXXXXXXXXXXXXXXXXXXXXXXXXXXXXXXXXXXQ.=.q                         ",
"            H L.{.XXXXXXXXXXXXXX2.< . P B.XXXXXXXXXXXXXXXXXXXXXXXXXXXXXXXXXXXXXXXXXXXXXXXXXXXXXX{.6.q @                         ",
"          + } XXXXXXXXXXXXXXXXXX[   & q.].XXXXXXXXXXXXXXXXXXXXXXXXXXXXXXXXXXXXXXXXXXXXXXXXXXXXU.,.l                             ",
"          , 2.XX{.XXXXXXXXXXXXE.S   t A.XXXX{.XXXX{.XX{.{.XX{.{.XX{.{.XX{.{.XX{.XX{.{.XX}.^.S.O.5                               ",
"          t w.^.R.R.R.R.T.^.H.;.q . Z M.(.I.I.L.I.J.I.I.I.I.J.I.I.J.I.I.J.I.I.J.I.I.I.S.g.} g 1 . .                             ",
"          - m W P I I P I T H y @ . w H T K K K K J J J K K K K K K K K K K K K K P P S m 5       .                             ",
"                                  .     .                                                                                       ",
"                                                                                                                                ",
"                                                                                                                                ",
"                                                                                                                                ",
"                                                                                                                                ",
"                                                                                                                                ",
"                                                                                                                                ",
"+                                                                                                                             X ",
">                                                                                                                             O ",
"w                                                                                                                           . & ",
"T                                                                                                                           . OX",
"OX+                                                                                                                         . OX",
"OXd                                                                                                                         - OX",
"OXOX+                                                                                                                     . OXOX",
"OXOXOX                                                                                                                    OXOXOX",
"OXOXOXd                                                                                                                 OXOXOXOX",
"OXOXOXOXj                                                                                                             OXOXOXOXOX",
"OXOXOXOXOXOX+                                                                                                     . OXOXOXOXOXOX",
"OXOXOXOXOXOXOX8 +                                                                                             + @ OXOXOXOXOXOXOX",
"OXOXOXOXOXOXOXOXOXOX7 & .                                                                             . + @ OXOXOXOXOXOXOXOXOXOX"
};
